<svg width="106" height="41" viewBox="0 0 106 41" fill="none" xmlns="http://www.w3.org/2000/svg">
<path d="M93.4312 6.02283C86.9305 6.02283 81.6406 11.3416 81.6406 17.8802C81.6406 24.4188 86.9305 29.7376 93.4312 29.7376C99.9304 29.7376 105.219 24.4188 105.219 17.8802C105.219 11.3416 99.9304 6.02283 93.4312 6.02283ZM93.4312 24.118C90.0124 24.118 87.2279 21.3167 87.2279 17.8802C87.2279 14.4422 90.0124 11.6424 93.4312 11.6424C96.847 11.6424 99.633 14.4422 99.633 17.8802C99.633 21.3182 96.8485 24.118 93.4297 24.118H93.4312ZM58.7121 15.4788L56.6504 14.4437C55.7553 13.998 55.1941 13.653 54.9684 13.398C54.7533 13.1721 54.6308 12.8735 54.6253 12.5614C54.6253 12.1614 54.8053 11.824 55.159 11.5615C55.5098 11.2867 56.0084 11.1615 56.6413 11.1615C57.7987 11.1615 59.0811 11.8607 60.4932 13.2698L63.973 9.76919C63.118 8.60351 61.9998 7.6567 60.7097 7.00598C59.4365 6.36468 58.0299 6.03406 56.6047 6.04115C54.4805 6.04115 52.7268 6.66859 51.3605 7.93265C49.9957 9.1967 49.3095 10.7157 49.3095 12.4973C49.3095 15.2605 51.1165 17.5627 54.7427 19.39L56.6413 20.3442C58.2775 21.1732 59.0918 22.0174 59.0918 22.8906C59.0918 23.3639 58.8646 23.773 58.4132 24.1364C57.9618 24.5012 57.3641 24.6737 56.623 24.6737C55.9367 24.6737 55.1499 24.4371 54.2639 23.9562C53.3811 23.4831 52.5957 22.847 51.9491 22.0815L48.4876 25.8737C50.4394 28.4384 53.0425 29.7299 56.3149 29.7299C58.7746 29.7299 60.7372 29.0567 62.1919 27.7194C63.6558 26.3836 64.3878 24.7104 64.3878 22.709C64.3878 21.2083 63.9822 19.8908 63.177 18.7718C62.3642 17.6527 60.8729 16.5627 58.7121 15.4803V15.4788ZM23.7062 27.1545V6.49456H18.1098V7.87769C16.2241 6.66427 14.0292 6.02031 11.7876 6.02283C5.28839 6.02283 0 11.3416 0 17.8802C0 24.4188 5.28839 29.7376 11.7891 29.7376C14.0038 29.7409 16.1738 29.1135 18.0458 27.9285C18.0458 28.1102 18.0366 28.2735 18.0366 28.3835C18.0366 31.8199 15.2521 34.6213 11.8348 34.6213C10.6729 34.6186 9.53531 34.2873 8.55322 33.6656L5.78551 38.5402C7.61054 39.6547 9.70621 40.2461 11.844 40.25C18.3447 40.25 23.7062 34.9297 23.7062 28.3911C23.7062 28.1377 23.723 27.3911 23.7062 27.1545ZM11.7891 24.1165C8.37328 24.1165 5.58727 21.3167 5.58727 17.8802C5.58727 14.4422 8.37175 11.6424 11.7891 11.6424C15.2064 11.6424 17.9909 14.4422 17.9909 17.8802C17.9909 21.3167 15.2064 24.118 11.7891 24.118V24.1165ZM45.9989 6.48693H40.375V17.7596C40.3842 19.361 40.3842 22.1258 39.21 23.3074C38.6488 23.8707 38.0343 24.3806 36.7412 24.3806C35.4389 24.3806 34.8244 23.8707 34.2647 23.3074C33.089 22.1242 33.0982 19.3519 33.1058 17.7596V6.48693H27.4835V17.726C27.4652 20.0434 27.4377 24.3455 30.2588 27.2003C31.9133 28.8735 33.885 29.7284 36.732 29.7284C39.5806 29.7284 41.5507 28.8827 43.2053 27.2003C46.0264 24.3455 45.9989 20.0343 45.9806 17.726L45.9989 6.4854V6.48693ZM77.868 23.1089C77.4166 23.4539 76.3217 24.2188 75.0835 24.0463C74.071 23.9089 73.249 23.1639 73.1225 20.6724V11.3248H79.7314V6.46861H73.1225V0.166656H67.5169V1.40323H67.5078V19.9366C67.5078 22.883 68.2489 29.7284 75.0744 29.7284C78.5283 29.675 80.625 27.7926 81.5034 27.0568L81.6208 26.9652L78.2569 22.8005C78.2477 22.8082 78.0129 22.999 77.868 23.1089Z" fill="#F45D48"/>
</svg>
