<svg width="40" height="40" viewBox="0 0 40 40" fill="none" xmlns="http://www.w3.org/2000/svg">
<rect width="40" height="40" rx="8" fill="#E5F0B6" fill-opacity="0.5"/>
<g clip-path="url(#clip0_1_1439)">
<path d="M23.5 22H22.71L22.43 21.73C23.63 20.33 24.25 18.42 23.91 16.39C23.44 13.61 21.12 11.39 18.32 11.05C14.09 10.53 10.53 14.09 11.05 18.32C11.39 21.12 13.61 23.44 16.39 23.91C18.42 24.25 20.33 23.63 21.73 22.43L22 22.71V23.5L26.25 27.75C26.66 28.16 27.33 28.16 27.74 27.75C28.15 27.34 28.15 26.67 27.74 26.26L23.5 22ZM17.5 22C15.01 22 13 19.99 13 17.5C13 15.01 15.01 13 17.5 13C19.99 13 22 15.01 22 17.5C22 19.99 19.99 22 17.5 22Z" fill="#F4F4F4"/>
</g>
<defs>
<clipPath id="clip0_1_1439">
<rect width="24" height="24" fill="white" transform="translate(8 8)"/>
</clipPath>
</defs>
</svg>
