<svg width="87" height="37" viewBox="0 0 87 37" fill="none" xmlns="http://www.w3.org/2000/svg">
<path fill-rule="evenodd" clip-rule="evenodd" d="M86.7201 19.4683C86.7201 13.3588 83.7608 8.53806 78.1048 8.53806C72.4249 8.53806 68.9883 13.3588 68.9883 19.4206C68.9883 26.604 73.0454 30.2315 78.8685 30.2315C81.7084 30.2315 83.8563 29.5871 85.4791 28.6802V23.9072C83.8563 24.7186 81.9948 25.2198 79.6322 25.2198C77.3173 25.2198 75.2649 24.4084 75.0023 21.5923H86.6724C86.6724 21.282 86.7201 20.041 86.7201 19.4683ZM74.9307 17.2011C74.9307 14.5043 76.5774 13.3827 78.0809 13.3827C79.5367 13.3827 81.0879 14.5043 81.0879 17.2011H74.9307Z" fill="#635BFF"/>
<path fill-rule="evenodd" clip-rule="evenodd" d="M59.7762 8.53804C57.4374 8.53804 55.9339 9.63584 55.0986 10.3995L54.7884 8.91988H49.5381V36.7466L55.5044 35.4818L55.5282 28.7279C56.3874 29.3484 57.6522 30.2314 59.7523 30.2314C64.0242 30.2314 67.9142 26.7949 67.9142 19.2296C67.8904 12.3087 63.9526 8.53804 59.7762 8.53804ZM58.3443 24.9811C56.9363 24.9811 56.101 24.4799 55.5282 23.8594L55.5044 15.0055C56.1249 14.3134 56.984 13.8361 58.3443 13.8361C60.516 13.8361 62.0195 16.2703 62.0195 19.3967C62.0195 22.5946 60.5399 24.9811 58.3443 24.9811Z" fill="#635BFF"/>
<path fill-rule="evenodd" clip-rule="evenodd" d="M41.3284 7.12995L47.3185 5.84123V0.996613L41.3284 2.26146V7.12995Z" fill="#635BFF"/>
<path d="M47.3185 8.94372H41.3284V29.8257H47.3185V8.94372Z" fill="#635BFF"/>
<path fill-rule="evenodd" clip-rule="evenodd" d="M34.9084 10.7097L34.5265 8.94371H29.3717V29.8257H35.338V15.6737C36.746 13.8361 39.1325 14.1702 39.8723 14.4327V8.94371C39.1086 8.65733 36.3164 8.13229 34.9084 10.7097Z" fill="#635BFF"/>
<path fill-rule="evenodd" clip-rule="evenodd" d="M22.976 3.76494L17.1529 5.00593L17.129 24.1219C17.129 27.6539 19.7781 30.2552 23.3101 30.2552C25.2671 30.2552 26.699 29.8972 27.4865 29.4677V24.6231C26.7228 24.9333 22.9521 26.0311 22.9521 22.4991V14.0269H27.4865V8.94367H22.9521L22.976 3.76494Z" fill="#635BFF"/>
<path fill-rule="evenodd" clip-rule="evenodd" d="M6.84342 15.0055C6.84342 14.0748 7.6071 13.7168 8.87195 13.7168C10.6857 13.7168 12.9768 14.2657 14.7905 15.2442V9.63585C12.8097 8.8483 10.8528 8.53806 8.87195 8.53806C4.02733 8.53806 0.805542 11.0678 0.805542 15.2919C0.805542 21.8787 9.87429 20.8286 9.87429 23.6685C9.87429 24.7663 8.91968 25.1243 7.58324 25.1243C5.60243 25.1243 3.07273 24.3129 1.06806 23.2151V28.895C3.28751 29.8496 5.53084 30.2553 7.58324 30.2553C12.5472 30.2553 15.9599 27.7972 15.9599 23.5254C15.936 16.4135 6.84342 17.6784 6.84342 15.0055Z" fill="#635BFF"/>
</svg>
